<?xml version="1.0" encoding="UTF-8"?>
<svg width="1200pt" height="1200pt" version="1.1" viewBox="0 0 1200 1200" xmlns="http://www.w3.org/2000/svg">
 <path d="m1020 531.62c-20.699 0-37.5 16.801-37.5 37.5v283.82c0 117.94-95.961 213.9-213.9 213.9h-421.46c-117.94 0-213.9-95.961-213.9-213.9l-0.003906-421.48c0-117.94 95.961-213.9 213.9-213.9h283.82c20.699 0 37.5-16.801 37.5-37.5 0-20.699-16.801-37.5-37.5-37.5l-283.82-0.003906c-159.3 0-288.9 129.6-288.9 288.9v421.48c0 159.3 129.6 288.9 288.9 288.9l421.46 0.003907c159.3 0 288.9-129.6 288.9-288.9v-283.82c0-20.719-16.781-37.5-37.5-37.5zm80.215-380.75-51.039-51.02c-26.887-26.887-62.625-41.68-100.65-41.68-38.023 0-73.781 14.793-100.67 41.699l-428.38 428.91c-39.375 39.375-59.137 89.25-57.188 144.47l2.1172 50.926c2.3438 60.168 51.32 109.14 111.38 111.47l51.262 2.1367c2.4922 0.09375 4.9883 0.13281 7.4453 0.13281 51.711 0 99.113-19.742 137.3-57.336l428.4-428.4c55.523-55.488 55.523-145.79 0.023437-201.3zm-481.2 576.47c-24.336 23.945-51.977 35.57-84.508 35.57l-55.707-2.1953c-21.301-0.82422-38.625-18.168-39.449-39.562l-2.1172-50.773c-1.2188-34.633 10.332-63.602 35.305-88.574l317.95-318.36 146.21 146.21zm428.17-428.18-57.469 57.469-146.25-146.25 57.43-57.508c12.711-12.711 29.625-19.707 47.625-19.707s34.914 6.9922 47.625 19.727l51.039 51.02c26.25 26.25 26.25 69 0 95.25z" fill="#131312"/>
</svg>
